<mxfile host="app.diagrams.net" agent="Mozilla/5.0 (Windows NT 10.0; Win64; x64) AppleWebKit/537.36 (KHTML, like Gecko) Chrome/133.0.0.0 Safari/537.36" version="26.0.16">
  <diagram id="C5RBs43oDa-KdzZeNtuy" name="Page-1">
    <mxGraphModel dx="677" dy="391" grid="1" gridSize="10" guides="1" tooltips="1" connect="1" arrows="1" fold="1" page="1" pageScale="1" pageWidth="1600" pageHeight="900" math="0" shadow="0">
      <root>
        <mxCell id="WIyWlLk6GJQsqaUBKTNV-0" />
        <mxCell id="WIyWlLk6GJQsqaUBKTNV-1" parent="WIyWlLk6GJQsqaUBKTNV-0" />
        <mxCell id="WIyWlLk6GJQsqaUBKTNV-2" value="" style="rounded=0;html=1;jettySize=auto;orthogonalLoop=1;fontSize=11;endArrow=block;endFill=0;endSize=8;strokeWidth=1;shadow=0;labelBackgroundColor=none;edgeStyle=orthogonalEdgeStyle;" parent="WIyWlLk6GJQsqaUBKTNV-1" source="WIyWlLk6GJQsqaUBKTNV-3" edge="1">
          <mxGeometry relative="1" as="geometry">
            <mxPoint x="220" y="170" as="targetPoint" />
          </mxGeometry>
        </mxCell>
        <mxCell id="WIyWlLk6GJQsqaUBKTNV-3" value="&amp;nbsp;&amp;nbsp;&lt;span class=&quot;hljs-keyword&quot;&gt;User&lt;/span&gt; Inputs Data&amp;nbsp; &amp;nbsp;&amp;nbsp;" style="rounded=1;whiteSpace=wrap;html=1;fontSize=12;glass=0;strokeWidth=1;shadow=0;" parent="WIyWlLk6GJQsqaUBKTNV-1" vertex="1">
          <mxGeometry x="160" y="80" width="120" height="40" as="geometry" />
        </mxCell>
        <mxCell id="vUyZod-p4IX-RPDBum4t-5" value="" style="edgeStyle=orthogonalEdgeStyle;rounded=0;orthogonalLoop=1;jettySize=auto;html=1;" edge="1" parent="WIyWlLk6GJQsqaUBKTNV-1" source="vUyZod-p4IX-RPDBum4t-0" target="vUyZod-p4IX-RPDBum4t-4">
          <mxGeometry relative="1" as="geometry" />
        </mxCell>
        <mxCell id="vUyZod-p4IX-RPDBum4t-0" value="Frontend (React.js)&amp;nbsp;&lt;div&gt;&amp;nbsp;- UI Form&amp;nbsp;&lt;/div&gt;&lt;div&gt;&amp;nbsp;- Handles &lt;span class=&quot;hljs-keyword&quot;&gt;Input&lt;/span&gt;&lt;/div&gt;" style="rounded=0;whiteSpace=wrap;html=1;" vertex="1" parent="WIyWlLk6GJQsqaUBKTNV-1">
          <mxGeometry x="145" y="170" width="150" height="90" as="geometry" />
        </mxCell>
        <mxCell id="vUyZod-p4IX-RPDBum4t-2" value="" style="rounded=0;html=1;jettySize=auto;orthogonalLoop=1;fontSize=11;endArrow=block;endFill=0;endSize=8;strokeWidth=1;shadow=0;labelBackgroundColor=none;edgeStyle=orthogonalEdgeStyle;" edge="1" parent="WIyWlLk6GJQsqaUBKTNV-1">
          <mxGeometry relative="1" as="geometry">
            <mxPoint x="220" y="120" as="sourcePoint" />
            <mxPoint x="220" y="170" as="targetPoint" />
          </mxGeometry>
        </mxCell>
        <mxCell id="vUyZod-p4IX-RPDBum4t-9" value="" style="edgeStyle=orthogonalEdgeStyle;rounded=0;orthogonalLoop=1;jettySize=auto;html=1;" edge="1" parent="WIyWlLk6GJQsqaUBKTNV-1" source="vUyZod-p4IX-RPDBum4t-4" target="vUyZod-p4IX-RPDBum4t-8">
          <mxGeometry relative="1" as="geometry" />
        </mxCell>
        <mxCell id="vUyZod-p4IX-RPDBum4t-4" value="Backend (Node.js/Express)&amp;nbsp;&lt;div&gt;&amp;nbsp;- Validates Data&amp;nbsp;&lt;div&gt;&amp;nbsp;- Calls ML API&amp;nbsp;&lt;/div&gt;&lt;/div&gt;" style="whiteSpace=wrap;html=1;rounded=0;" vertex="1" parent="WIyWlLk6GJQsqaUBKTNV-1">
          <mxGeometry x="125" y="290" width="190" height="90" as="geometry" />
        </mxCell>
        <mxCell id="vUyZod-p4IX-RPDBum4t-11" value="" style="edgeStyle=orthogonalEdgeStyle;rounded=0;orthogonalLoop=1;jettySize=auto;html=1;" edge="1" parent="WIyWlLk6GJQsqaUBKTNV-1" source="vUyZod-p4IX-RPDBum4t-8" target="vUyZod-p4IX-RPDBum4t-10">
          <mxGeometry relative="1" as="geometry" />
        </mxCell>
        <mxCell id="vUyZod-p4IX-RPDBum4t-8" value="ML Model API (FastAPI)&amp;nbsp;&lt;div&gt;&amp;nbsp;- Loads XGBoost Model&amp;nbsp;&lt;/div&gt;&lt;div&gt;- Predicts Heart Disease&amp;nbsp;&lt;/div&gt;" style="whiteSpace=wrap;html=1;rounded=0;" vertex="1" parent="WIyWlLk6GJQsqaUBKTNV-1">
          <mxGeometry x="125" y="420" width="190" height="90" as="geometry" />
        </mxCell>
        <mxCell id="vUyZod-p4IX-RPDBum4t-13" value="" style="edgeStyle=orthogonalEdgeStyle;rounded=0;orthogonalLoop=1;jettySize=auto;html=1;" edge="1" parent="WIyWlLk6GJQsqaUBKTNV-1" source="vUyZod-p4IX-RPDBum4t-10" target="vUyZod-p4IX-RPDBum4t-12">
          <mxGeometry relative="1" as="geometry" />
        </mxCell>
        <mxCell id="vUyZod-p4IX-RPDBum4t-10" value="&amp;nbsp;Backend &lt;span class=&quot;hljs-keyword&quot;&gt;Returns&lt;/span&gt; Result&amp;nbsp;&lt;div&gt;- Sends Prediction &lt;span class=&quot;hljs-keyword&quot;&gt;to&lt;/span&gt; UI&amp;nbsp;&lt;/div&gt;" style="whiteSpace=wrap;html=1;rounded=0;" vertex="1" parent="WIyWlLk6GJQsqaUBKTNV-1">
          <mxGeometry x="140" y="560" width="160" height="70" as="geometry" />
        </mxCell>
        <mxCell id="vUyZod-p4IX-RPDBum4t-15" value="" style="edgeStyle=orthogonalEdgeStyle;rounded=0;orthogonalLoop=1;jettySize=auto;html=1;" edge="1" parent="WIyWlLk6GJQsqaUBKTNV-1" source="vUyZod-p4IX-RPDBum4t-12" target="vUyZod-p4IX-RPDBum4t-14">
          <mxGeometry relative="1" as="geometry" />
        </mxCell>
        <mxCell id="vUyZod-p4IX-RPDBum4t-12" value="Frontend Displays Result&amp;nbsp;&lt;div&gt;&amp;nbsp;- Shows Risk &lt;span class=&quot;hljs-keyword&quot;&gt;Level&lt;/span&gt;&lt;/div&gt;" style="shape=parallelogram;perimeter=parallelogramPerimeter;whiteSpace=wrap;html=1;fixedSize=1;rounded=0;" vertex="1" parent="WIyWlLk6GJQsqaUBKTNV-1">
          <mxGeometry x="120" y="690" width="200" height="80" as="geometry" />
        </mxCell>
        <mxCell id="vUyZod-p4IX-RPDBum4t-14" value="Download result PDF" style="whiteSpace=wrap;html=1;rounded=0;" vertex="1" parent="WIyWlLk6GJQsqaUBKTNV-1">
          <mxGeometry x="145" y="827" width="150" height="43" as="geometry" />
        </mxCell>
        <mxCell id="vUyZod-p4IX-RPDBum4t-16" style="edgeStyle=orthogonalEdgeStyle;rounded=0;orthogonalLoop=1;jettySize=auto;html=1;exitX=0.5;exitY=1;exitDx=0;exitDy=0;" edge="1" parent="WIyWlLk6GJQsqaUBKTNV-1" source="vUyZod-p4IX-RPDBum4t-14" target="vUyZod-p4IX-RPDBum4t-14">
          <mxGeometry relative="1" as="geometry" />
        </mxCell>
      </root>
    </mxGraphModel>
  </diagram>
</mxfile>
